# xmcd CD database file
#
# Track frame offsets:
#	150
#	19687
#	34504
#	53640
#	67675
#	88954
#	110809
#	141425
#	156520
#	174078
#	191691
#	213705
#	246361
#	272726
#
# Disc length: 3895 seconds
#
# Revision: 1
# Processed by: cddbd v1.4PL0 Copyright (c) Steve Scherf et al.
# Submitted via: CDex 1.50beta10
#
DISCID=ca0f350e
DTITLE=Termites - Η Συναυλία [CD2)
DYEAR=1900
DGENRE=Έντεχνο
TTITLE0=Πρώτη Βροχή
TTITLE1=Σκόνη
TTITLE2=Φλασάκι
TTITLE3=Πάρε Με Από Δω
TTITLE4=Rock n Roll Στο Κρεβάτι
TTITLE5=Νοέμβρης 90
TTITLE6=Διδυμότειχο Blues
TTITLE7=Πριν Το Τέλος
TTITLE8=Ενας Νέγρος Θερμαστής
TTITLE9=Νότος
TTITLE10=Ενας Τούρκος Στο Παρίσι
TTITLE11=Παρουσίαση Μουσικών Συγκάτοικοι (Σχήμα Λόγου)
TTITLE12=Πόσο Σε Θέλω
TTITLE13=Με Το Ιδιο Μακώ
EXTD=
EXTT0=
EXTT1=
EXTT2=
EXTT3=
EXTT4=
EXTT5=
EXTT6=
EXTT7=
EXTT8=
EXTT9=
EXTT10=
EXTT11=
EXTT12=
EXTT13=
PLAYORDER=
